<svg width="48" height="32" viewBox="0 0 48 32" xmlns="http://www.w3.org/2000/svg">
  <rect width="48" height="32" rx="4" fill="#1A1F71"/>
  <path d="M18.6427 21.6H15.5649L13.6 10.4H16.6778L18.6427 21.6Z" fill="white"/>
  <path d="M27.3981 10.7095C26.7583 10.4762 25.7115 10.4 24.4452 10.4C21.5869 10.4 19.5459 11.9143 19.5459 14.0952C19.5459 15.7714 21.0518 16.7048 22.2419 17.2572C23.4321 17.8095 23.8524 18.1714 23.8524 18.6857C23.8524 19.4286 22.9738 19.7905 22.1792 19.7905C21.0359 19.7905 20.4121 19.6381 19.4414 19.2381L19.0531 19.0476L18.6487 21.4667C19.4093 21.7762 20.7237 22.0476 22.0861 22.0476C25.1319 22.0476 27.1249 20.5524 27.1249 18.2476C27.1249 16.9333 26.2303 15.9238 24.4772 15.1048C23.3831 14.5905 22.7113 14.2286 22.7113 13.6762C22.7113 13.1619 23.3351 12.6476 24.6494 12.6476C25.7435 12.6476 26.5701 12.8381 27.1779 13.0667L27.4542 13.1809L27.8585 10.8619L27.3981 10.7095Z" fill="white"/>
  <path d="M32.7596 10.4H30.4951C29.6845 10.4 29.0768 10.6286 28.7365 11.4095L24.4453 21.6H27.6333L28.2889 19.9238H31.8898L32.2782 21.6H35.1365L32.7596 10.4ZM29.0608 17.7714L30.4272 14.0571L31.1895 17.7714H29.0608Z" fill="white"/>
  <path d="M13.8763 10.4L11.0179 18.0952L10.7097 16.8571C10.1339 15.2952 8.49595 13.5809 6.66699 12.6476L9.27996 21.5619H12.4839L17.0709 10.4H13.8763Z" fill="white"/>
  <path d="M8.51192 10.4H3.94495L3.89697 10.6286C7.17481 11.4476 9.34794 13.5429 10.1336 16.8571L9.17883 11.4476C9.00892 10.6667 8.32116 10.4 8.51192 10.4Z" fill="#F7B600"/>
</svg>