<?xml version="1.0" encoding="UTF-8"?>
<svg width="48px" height="32px" viewBox="0 0 48 32" version="1.1" xmlns="http://www.w3.org/2000/svg">
    <g stroke="none" stroke-width="1" fill="none" fill-rule="evenodd">
        <rect fill="#006FCF" x="0" y="0" width="48" height="32" rx="4"/>
        <path d="M23.1,15.6h2l-1-2.3L23.1,15.6z M41,11h-3.8l-2.4,2.6L32.4,11H23.9l-1.7,4l-1.7-4h-4.1v2l-0.8-2h-3.8L8,19h4.5l0.7-1.7h1.7L15.6,19h4.4v-1.5l0.6,1.5h3.5l0.6-1.5V19h14.1l2.5-2.6l2.3,2.6H48l-3.5-4L41,11z M25.8,17.7h-1.9l0,0l-1.5-3.7v3.7h-3.8l-0.7-1.7h-3.9l-0.7,1.7h-2.2l3.4-8h2.8l3.2,7.5v-7.5h3.1l2.5,5.4l2.3-5.4h3.1v8H25.8z M36.8,17.7H30v-8h6.8v1.7H32v1.4h4.7v1.6H32v1.7h4.8V17.7z M42.8,17.7l-3.3-3.3l3.3-3.1V17.7z" fill="#FFFFFF"/>
    </g>
</svg>