<?xml version="1.0" encoding="UTF-8"?>
<svg width="48px" height="32px" viewBox="0 0 48 32" version="1.1" xmlns="http://www.w3.org/2000/svg">
    <g stroke="none" stroke-width="1" fill="none" fill-rule="evenodd">
        <rect fill="#FFFFFF" x="0" y="0" width="48" height="32" rx="4"/>
        <path d="M34.4,9.6h-4.2c-0.3,0-0.5,0.2-0.6,0.5l-1.7,10.7c0,0.2,0.1,0.3,0.3,0.3h2c0.2,0,0.3-0.2,0.3-0.3l0.5-3c0-0.3,0.2-0.5,0.6-0.5h1.3c2.7,0,4.3-1.3,4.7-3.9c0.2-1.1,0-2-0.5-2.6C36.4,10,35.5,9.6,34.4,9.6z M35,13.9c-0.2,1.4-1.3,1.4-2.3,1.4H32l0.4-2.7c0-0.1,0.1-0.2,0.3-0.2h0.3c0.7,0,1.4,0,1.7,0.4C35,13,35,13.4,35,13.9z" fill="#253B80"/>
        <path d="M16.4,9.6h-4.2c-0.3,0-0.5,0.2-0.6,0.5l-1.7,10.7c0,0.2,0.1,0.3,0.3,0.3h2.1c0.3,0,0.5-0.2,0.6-0.5l0.5-2.8c0-0.3,0.2-0.5,0.6-0.5h1.3c2.7,0,4.3-1.3,4.7-3.9c0.2-1.1,0-2-0.5-2.6C18.4,10,17.5,9.6,16.4,9.6z M17,13.9c-0.2,1.4-1.3,1.4-2.3,1.4H14l0.4-2.7c0-0.1,0.1-0.2,0.3-0.2H15c0.7,0,1.4,0,1.7,0.4C17,13,17,13.4,17,13.9z" fill="#179BD7"/>
        <path d="M25.4,13.9h-2.1c-0.2,0-0.3,0.1-0.3,0.2l-0.1,0.5l-0.1-0.2c-0.4-0.6-1.3-0.8-2.2-0.8c-2.1,0-3.8,1.6-4.1,3.8c-0.2,1.1,0.1,2.2,0.7,2.9c0.6,0.7,1.5,0.9,2.5,0.9c1.8,0,2.8-1.1,2.8-1.1l-0.1,0.5c0,0.2,0.1,0.3,0.3,0.3h1.9c0.3,0,0.5-0.2,0.6-0.5l1.1-6.9C25.7,14.1,25.6,13.9,25.4,13.9z M22.5,17.5c-0.2,1.1-1.1,1.8-2.2,1.8c-0.6,0-1-0.2-1.3-0.5c-0.3-0.3-0.4-0.8-0.3-1.3c0.2-1.1,1.1-1.8,2.2-1.8c0.6,0,1,0.2,1.3,0.5C22.5,16.5,22.6,17,22.5,17.5z" fill="#179BD7"/>
        <path d="M40.4,13.9h-2.1c-0.2,0-0.3,0.1-0.3,0.2l-0.1,0.5l-0.1-0.2c-0.4-0.6-1.3-0.8-2.2-0.8c-2.1,0-3.8,1.6-4.1,3.8c-0.2,1.1,0.1,2.2,0.7,2.9c0.6,0.7,1.5,0.9,2.5,0.9c1.8,0,2.8-1.1,2.8-1.1l-0.1,0.5c0,0.2,0.1,0.3,0.3,0.3h1.9c0.3,0,0.5-0.2,0.6-0.5l1.1-6.9C40.7,14.1,40.6,13.9,40.4,13.9z M37.5,17.5c-0.2,1.1-1.1,1.8-2.2,1.8c-0.6,0-1-0.2-1.3-0.5c-0.3-0.3-0.4-0.8-0.3-1.3c0.2-1.1,1.1-1.8,2.2-1.8c0.6,0,1,0.2,1.3,0.5C37.5,16.5,37.6,17,37.5,17.5z" fill="#253B80"/>
        <path d="M30,13.9h-2.1c-0.2,0-0.4,0.1-0.5,0.3l-2.9,4.2l-1.2-4c-0.1-0.2-0.3-0.4-0.5-0.4h-2c-0.2,0-0.4,0.2-0.3,0.5l2.3,6.7l-2.2,3c-0.2,0.2,0,0.6,0.3,0.6h2.1c0.2,0,0.4-0.1,0.5-0.3l7-10.1C30.5,14.2,30.3,13.9,30,13.9z" fill="#253B80"/>
    </g>
</svg>