<?xml version="1.0" encoding="UTF-8"?>
<svg width="48px" height="32px" viewBox="0 0 48 32" version="1.1" xmlns="http://www.w3.org/2000/svg">
    <g stroke="none" stroke-width="1" fill="none" fill-rule="evenodd">
        <rect fill="#FFFFFF" x="0" y="0" width="48" height="32" rx="4"/>
        <path d="M18.2,13.6l-3.3,8h-2l-1.6-6.3c-0.1-0.4-0.2-0.5-0.5-0.7c-0.5-0.2-1.3-0.4-2-0.6l0-0.4h3.5c0.4,0,0.8,0.3,0.9,0.8l0.8,4.4l2.1-5.2H18.2z" fill="#1A1F71"/>
        <path d="M25.9,18.8c0-2-2.8-2.1-2.8-3c0-0.3,0.3-0.5,0.8-0.6c0.3-0.1,1.1-0.1,1.9,0.2l0.3-1.5c-0.5-0.2-1-0.3-1.7-0.3c-1.8,0-3.1,1-3.1,2.4c0,1,0.9,1.6,1.6,1.9c0.7,0.3,1,0.6,1,0.9c0,0.5-0.6,0.7-1.1,0.7c-0.9,0-1.5-0.3-1.9-0.4l-0.3,1.6c0.4,0.2,1.2,0.4,2.1,0.4C24.7,21.1,25.9,20.1,25.9,18.8z" fill="#1A1F71"/>
        <path d="M30.7,21.6h1.8l-1.6-8h-1.7c-0.4,0-0.7,0.2-0.8,0.6l-2.9,7.4h2l0.4-1.1h2.5L30.7,21.6z M29,19.1l1-2.8l0.6,2.8H29z" fill="#1A1F71"/>
        <path d="M35.8,15.2l0.3-1.6h-1.8l-1.6,8h2l1.1-5.7c0.5-0.6,1.5-1.1,2.1-1.1c0.2,0,0.4,0,0.6,0.1l0.3-1.8c-0.2,0-0.3-0.1-0.5-0.1C37.5,13.1,36.4,13.9,35.8,15.2z" fill="#1A1F71"/>
    </g>
</svg>